<mxfile host="app.diagrams.net" modified="2024-03-27T04:46:26.211Z" agent="Mozilla/5.0 (X11; Linux x86_64) AppleWebKit/537.36 (KHTML, like Gecko) Chrome/123.0.0.0 Safari/537.36" etag="xxusiYYluoUzJGzsnYWL" version="24.1.0" type="github">
  <diagram name="페이지-1" id="f8FrJPMgOECa2-tX9CX7">
    <mxGraphModel dx="875" dy="518" grid="1" gridSize="10" guides="1" tooltips="1" connect="1" arrows="1" fold="1" page="1" pageScale="1" pageWidth="827" pageHeight="1169" math="0" shadow="0">
      <root>
        <mxCell id="0" />
        <mxCell id="1" parent="0" />
        <mxCell id="DP06FtlHvSMb9bnB0IUg-13" value="&lt;font style=&quot;font-size: 20px;&quot;&gt;머리&lt;/font&gt;" style="rounded=0;whiteSpace=wrap;html=1;" vertex="1" parent="1">
          <mxGeometry x="160" y="160" width="120" height="60" as="geometry" />
        </mxCell>
        <mxCell id="DP06FtlHvSMb9bnB0IUg-14" value="&lt;font style=&quot;font-size: 20px;&quot;&gt;IO&lt;/font&gt;&lt;div style=&quot;font-size: 15px;&quot;&gt;ㄷㅈㄷ&lt;/div&gt;" style="ellipse;whiteSpace=wrap;html=1;" vertex="1" parent="1">
          <mxGeometry x="20" y="290" width="120" height="80" as="geometry" />
        </mxCell>
        <mxCell id="DP06FtlHvSMb9bnB0IUg-16" value="통신, &lt;font style=&quot;font-size: 8px;&quot;&gt;delay, 코드 포함0.2sec 이내&lt;/font&gt;" style="text;html=1;align=center;verticalAlign=middle;whiteSpace=wrap;rounded=0;" vertex="1" parent="1">
          <mxGeometry x="30" y="240" width="180" height="20" as="geometry" />
        </mxCell>
        <mxCell id="DP06FtlHvSMb9bnB0IUg-18" value="" style="endArrow=classic;html=1;rounded=0;exitX=0.75;exitY=0;exitDx=0;exitDy=0;entryX=0.25;entryY=1;entryDx=0;entryDy=0;" edge="1" parent="1" source="DP06FtlHvSMb9bnB0IUg-16" target="DP06FtlHvSMb9bnB0IUg-13">
          <mxGeometry width="50" height="50" relative="1" as="geometry">
            <mxPoint x="240" y="290" as="sourcePoint" />
            <mxPoint x="290" y="240" as="targetPoint" />
          </mxGeometry>
        </mxCell>
        <mxCell id="DP06FtlHvSMb9bnB0IUg-19" value="" style="endArrow=classic;html=1;rounded=0;exitX=0.5;exitY=1;exitDx=0;exitDy=0;entryX=0.5;entryY=0;entryDx=0;entryDy=0;" edge="1" parent="1" source="DP06FtlHvSMb9bnB0IUg-16" target="DP06FtlHvSMb9bnB0IUg-14">
          <mxGeometry width="50" height="50" relative="1" as="geometry">
            <mxPoint x="240" y="290" as="sourcePoint" />
            <mxPoint x="290" y="240" as="targetPoint" />
          </mxGeometry>
        </mxCell>
        <mxCell id="DP06FtlHvSMb9bnB0IUg-21" value="&lt;h1 style=&quot;margin-top: 0px;&quot;&gt;아두이노&lt;/h1&gt;&lt;p&gt;배우는 이유&amp;nbsp;&lt;/p&gt;" style="text;html=1;whiteSpace=wrap;overflow=hidden;rounded=0;" vertex="1" parent="1">
          <mxGeometry x="40" y="40" width="180" height="80" as="geometry" />
        </mxCell>
        <mxCell id="DP06FtlHvSMb9bnB0IUg-22" value="" style="endArrow=classic;startArrow=classic;html=1;rounded=0;entryX=0.5;entryY=1;entryDx=0;entryDy=0;exitX=0.5;exitY=0;exitDx=0;exitDy=0;" edge="1" parent="1" source="DP06FtlHvSMb9bnB0IUg-23" target="DP06FtlHvSMb9bnB0IUg-13">
          <mxGeometry width="50" height="50" relative="1" as="geometry">
            <mxPoint x="220" y="300" as="sourcePoint" />
            <mxPoint x="300" y="210" as="targetPoint" />
          </mxGeometry>
        </mxCell>
        <mxCell id="DP06FtlHvSMb9bnB0IUg-23" value="&lt;b&gt;&lt;font style=&quot;font-size: 17px;&quot;&gt;Motor&lt;/font&gt;&lt;/b&gt;" style="rounded=1;whiteSpace=wrap;html=1;" vertex="1" parent="1">
          <mxGeometry x="160" y="300" width="120" height="60" as="geometry" />
        </mxCell>
        <mxCell id="DP06FtlHvSMb9bnB0IUg-24" value="&lt;b&gt;&lt;font style=&quot;font-size: 20px;&quot;&gt;ROS&lt;/font&gt;&lt;/b&gt;" style="ellipse;whiteSpace=wrap;html=1;" vertex="1" parent="1">
          <mxGeometry x="480" y="100" width="120" height="80" as="geometry" />
        </mxCell>
        <mxCell id="DP06FtlHvSMb9bnB0IUg-25" value="" style="endArrow=classic;startArrow=classic;html=1;rounded=0;exitX=1;exitY=0.5;exitDx=0;exitDy=0;entryX=0;entryY=0;entryDx=0;entryDy=0;" edge="1" parent="1" source="DP06FtlHvSMb9bnB0IUg-21" target="DP06FtlHvSMb9bnB0IUg-24">
          <mxGeometry width="50" height="50" relative="1" as="geometry">
            <mxPoint x="200" y="250" as="sourcePoint" />
            <mxPoint x="250" y="200" as="targetPoint" />
            <Array as="points">
              <mxPoint x="360" y="70" />
            </Array>
          </mxGeometry>
        </mxCell>
        <mxCell id="DP06FtlHvSMb9bnB0IUg-26" value="&lt;b&gt;&lt;font style=&quot;font-size: 14px;&quot;&gt;wheel&lt;/font&gt;&lt;/b&gt;" style="ellipse;whiteSpace=wrap;html=1;aspect=fixed;" vertex="1" parent="1">
          <mxGeometry x="180" y="410" width="80" height="80" as="geometry" />
        </mxCell>
        <mxCell id="DP06FtlHvSMb9bnB0IUg-27" value="" style="endArrow=classic;startArrow=classic;html=1;rounded=0;entryX=0.5;entryY=1;entryDx=0;entryDy=0;exitX=0.5;exitY=0;exitDx=0;exitDy=0;" edge="1" parent="1" source="DP06FtlHvSMb9bnB0IUg-26" target="DP06FtlHvSMb9bnB0IUg-23">
          <mxGeometry width="50" height="50" relative="1" as="geometry">
            <mxPoint x="200" y="490" as="sourcePoint" />
            <mxPoint x="250" y="440" as="targetPoint" />
          </mxGeometry>
        </mxCell>
      </root>
    </mxGraphModel>
  </diagram>
</mxfile>
